<svg width="99" height="102" viewBox="0 0 99 102" fill="none" xmlns="http://www.w3.org/2000/svg">
<path d="M62.0908 8.91045L11.0368 59.9645L5.96797 65.0333C4.20145 63.2667 2.83282 61.2615 1.86203 59.129C0.620691 56.4314 0 53.535 0 50.6146C0 45.4106 1.98932 40.1826 5.96797 36.204L41.195 0.984965C41.9827 0.197192 43.1206 -0.152908 44.2187 0.0619394L60.372 3.26873C62.9979 3.78595 63.9767 7.02456 62.0829 8.91839L62.0908 8.91045Z" fill="#57B576"/>
<path d="M58.4868 66.7439L39.7314 73.0063C30.2304 76.1733 19.9337 74.8126 11.6819 69.5926C9.63691 68.3115 7.72717 66.7916 5.97656 65.033L12.6448 62.813L49.2245 50.6224L59.7997 61.2056C61.5583 62.9562 60.8501 65.9641 58.4868 66.7439Z" fill="#57B576"/>
<path d="M49.2408 50.6941L11.6903 69.5927C9.64524 68.3116 7.73551 66.7917 5.9849 65.0331C4.23429 63.2746 2.8497 61.2614 1.87891 59.1288L34.3129 36.6097L11.1014 59.9086C11.1014 59.9086 11.0617 59.9484 11.0537 59.9723C9.9158 61.2057 11.0617 63.1552 12.6531 62.8131C12.7247 62.8051 12.7963 62.7812 12.86 62.7653L49.2408 50.7021V50.6941Z" fill="#57B576"/>
<path d="M36.3489 92.3508L87.4029 41.2968L92.4717 36.228C94.2382 37.9945 95.6069 39.9997 96.5777 42.1323C97.819 44.8298 98.4397 47.7263 98.4397 50.6466C98.4397 55.8507 96.4504 61.0786 92.4717 65.0572L57.2447 100.276C56.457 101.064 55.3191 101.414 54.221 101.199L38.0677 97.9925C35.4417 97.4753 34.463 94.2366 36.3568 92.3428L36.3489 92.3508Z" fill="#57B576"/>
<path d="M39.9538 34.5172L58.7091 28.2548C68.2101 25.0878 78.5069 26.4485 86.7586 31.6685C88.8036 32.9497 90.7134 34.4695 92.464 36.2281L85.7958 38.4481L49.2161 50.6387L38.6408 40.0555C36.8823 38.3049 37.5905 35.297 39.9538 34.5172Z" fill="#57B576"/>
<path d="M49.209 50.5667L86.7594 31.6682C88.8045 32.9493 90.7142 34.4691 92.4649 36.2277C94.2155 37.9863 95.6 39.9994 96.5708 42.132L64.1368 64.6511L87.3483 41.3522C87.3483 41.3522 87.3881 41.3124 87.3961 41.2885C88.534 40.0551 87.3881 38.1056 85.7966 38.4478C85.725 38.4557 85.6534 38.4796 85.5897 38.4955L49.209 50.5587V50.5667Z" fill="#57B576"/>
</svg>
